<svg width="59" height="36" viewBox="0 0 59 36" fill="none" xmlns="http://www.w3.org/2000/svg">
<path d="M48.9307 16.1382L48.9301 16.1335L48.925 16.0982C48.9201 16.0645 48.9118 16.011 48.8996 15.9397C48.8752 15.7969 48.8353 15.5834 48.775 15.315C48.6542 14.777 48.4531 14.0263 48.1351 13.1878C47.4915 11.4911 46.4097 9.54158 44.6483 8.20824C43.0006 6.96093 41.8519 6.42531 40.0877 6.26418C39.6532 6.2245 39.096 6.26944 38.4786 6.37912C37.206 6.60517 36.25 7.86476 36.25 9.47225V26.75H50.1451C52.4184 26.75 54.4193 26.454 55.8069 25.2639C56.9537 24.2803 57.8676 22.9393 57.7374 21.1353C57.5409 18.4103 55.8287 16.4896 53.5457 16.32C53.1214 16.2884 52.4614 16.4376 51.7911 16.6695C51.4804 16.777 51.2067 16.8881 51.011 16.9724C50.9137 17.0143 50.837 17.0489 50.7862 17.0724C50.7608 17.0841 50.742 17.0929 50.7304 17.0984L50.7185 17.1041L50.718 17.1044L50.7177 17.1045L50.7174 17.1046L50.717 17.1048L50.7168 17.1049L49.1497 17.8681L48.9307 16.1382ZM48.9307 16.1382L48.9308 16.1388L48.9309 16.1394L48.9309 16.1395L48.9307 16.1382Z" stroke="black" stroke-width="2.5"/>
<path d="M32 8L32 28" stroke="black" stroke-width="2.5"/>
<path d="M28 9V28" stroke="black" stroke-width="2.5"/>
<path d="M24 12V28" stroke="black" stroke-width="2.5"/>
<path d="M20 11V28" stroke="black" stroke-width="2.5"/>
<path d="M16 15V28" stroke="black" stroke-width="2.5"/>
<path d="M12 14V27" stroke="black" stroke-width="2.5"/>
<path d="M8 15V26" stroke="black" stroke-width="2.5"/>
<path d="M4 18V24" stroke="black" stroke-width="2.5"/>
</svg>
