<svg width="50" height="22" viewBox="0 0 50 22" fill="none" xmlns="http://www.w3.org/2000/svg">
<path d="M41.0424 10.5645L41.0426 10.566L41.0426 10.5663L41.0426 10.5663L41.0426 10.5664L41.1303 11.2575L41.757 10.9529L41.7571 10.9529L41.7572 10.9528L41.7576 10.9526L41.7607 10.9511L41.7754 10.9441C41.7887 10.9378 41.809 10.9283 41.8358 10.9159C41.8893 10.8913 41.9683 10.8557 42.0676 10.813C42.2667 10.7275 42.5453 10.6145 42.863 10.5048C43.518 10.2786 44.2661 10.0926 44.8248 10.1341C47.4393 10.3279 49.2793 12.5212 49.4862 15.3838C49.6285 17.3536 48.6459 18.8049 47.4952 19.8231C45.9167 21.2197 43.6704 21.5 41.3748 21.5H27.5V4.42776C27.5 2.55102 28.63 0.893443 30.3476 0.610987C30.9214 0.516623 31.473 0.473957 31.9393 0.516458C33.7962 0.685727 35.0183 1.26793 36.6679 2.51437C38.5018 3.89998 39.5999 5.89984 40.2404 7.58539C40.5592 8.42426 40.7606 9.17472 40.8821 9.71427C40.9427 9.98376 40.9833 10.1999 41.0085 10.3471C41.021 10.4207 41.0298 10.4771 41.0353 10.5142L41.0411 10.5553L41.0424 10.5645Z" stroke="black"/>
<path d="M25 3V22" stroke="black"/>
<path d="M19 7L19 22" stroke="black"/>
<path d="M21 7L21 22" stroke="black"/>
<path d="M23 5L23 22" stroke="black"/>
<path d="M17 6V22" stroke="black"/>
<path d="M15 7V22" stroke="black"/>
<path d="M13 8V22" stroke="black"/>
<path d="M11 10V22" stroke="black"/>
<path d="M9 12V22" stroke="black"/>
<path d="M7 11V22" stroke="black"/>
<path d="M5 11V22" stroke="black"/>
<path d="M3 12V21" stroke="black"/>
<path d="M1 14V19" stroke="black"/>
</svg>
