<svg width="59" height="36" viewBox="0 0 59 36" fill="none" xmlns="http://www.w3.org/2000/svg">
<path d="M47.4565 16.9813L47.4577 16.9904L47.4577 16.9909L47.4578 16.9911L47.4578 16.9915L47.4579 16.992L47.6696 18.7994L49.2803 17.9517L49.2804 17.9517L49.2808 17.9515L49.281 17.9513L49.2813 17.9512L49.2827 17.9505L49.2973 17.9429C49.3114 17.9357 49.3339 17.9242 49.3641 17.9092C49.4245 17.8791 49.5153 17.8348 49.6302 17.7813C49.8611 17.6738 50.1839 17.5321 50.5506 17.395C51.3373 17.1009 52.1262 16.9056 52.6447 16.9472C55.3719 17.1662 57.4917 19.6798 57.7343 23.3143C57.9092 25.9332 56.5779 27.8022 55.1028 29.0722C53.5777 30.3854 51.4041 30.75 48.9881 30.75H32.25V7.65428C32.25 6.10527 33.1532 4.85294 34.4201 4.54885C35.3606 4.3231 36.2629 4.20099 36.9455 4.26837C39.0303 4.47415 40.3978 5.16285 42.3451 6.75601C44.4518 8.47958 45.7432 10.9984 46.5083 13.1787C46.8866 14.2566 47.1258 15.2217 47.2699 15.9148C47.3418 16.2607 47.3896 16.5369 47.4191 16.7233C47.4338 16.8164 47.4439 16.887 47.4501 16.9324L47.4565 16.9813Z" stroke="black" stroke-width="2.5"/>
<path d="M28 6.3913V32" stroke="black" stroke-width="2.5"/>
<path d="M24 10.4348V32" stroke="black" stroke-width="2.5"/>
<path d="M20 9.08696V32" stroke="black" stroke-width="2.5"/>
<path d="M16 14.4783V32" stroke="black" stroke-width="2.5"/>
<path d="M12 13.1304V30.6522" stroke="black" stroke-width="2.5"/>
<path d="M8 14.4783V29.3044" stroke="black" stroke-width="2.5"/>
<path d="M4 18.5217V26.6087" stroke="black" stroke-width="2.5"/>
</svg>
