<svg width="59" height="36" viewBox="0 0 59 36" fill="none" xmlns="http://www.w3.org/2000/svg">
<path d="M46.7206 15.935L46.7219 15.9456L46.722 15.9458L46.722 15.9462L46.7221 15.9467L46.7221 15.947L46.9341 17.7522L48.5436 16.907L48.544 16.9068L48.5442 16.9067L48.5445 16.9065L48.5464 16.9056L48.5625 16.8973C48.5779 16.8894 48.6023 16.877 48.635 16.8608C48.7004 16.8283 48.7983 16.7805 48.9222 16.723C49.1712 16.6074 49.5193 16.455 49.9149 16.3074C50.7593 15.9924 51.621 15.777 52.1981 15.8232C55.181 16.0621 57.4715 18.8005 57.733 22.7098C57.9301 25.6549 56.36 27.7255 54.6961 29.0924C53.1277 30.3808 50.9501 30.75 48.5493 30.75H30.25V5.75098C30.25 4.2073 31.1525 2.94741 32.4331 2.62366C33.5096 2.35151 34.5754 2.19093 35.3792 2.27008C37.6365 2.49237 39.118 3.23915 41.2131 4.94921C43.4881 6.80619 44.8785 9.51573 45.7006 11.853C46.1074 13.0095 46.3646 14.0448 46.5196 14.7885C46.5969 15.1597 46.6484 15.4563 46.6801 15.6567C46.696 15.7569 46.7069 15.8329 46.7136 15.882C46.7169 15.9065 46.7193 15.9243 46.7206 15.935Z" stroke="black" stroke-width="2.5"/>
<path d="M26 6.3913V32" stroke="black" stroke-width="2.5"/>
<path d="M22 10.4348V32" stroke="black" stroke-width="2.5"/>
<path d="M18 9.08696V32" stroke="black" stroke-width="2.5"/>
<path d="M14 14.4783V32" stroke="black" stroke-width="2.5"/>
<path d="M10 13.1304V30.6522" stroke="black" stroke-width="2.5"/>
<path d="M6 14.4783V29.3044" stroke="black" stroke-width="2.5"/>
<path d="M2 18.5217V26.6087" stroke="black" stroke-width="2.5"/>
</svg>
