<svg width="53" height="38" viewBox="0 0 53 38" fill="none" xmlns="http://www.w3.org/2000/svg">
<path fill-rule="evenodd" clip-rule="evenodd" d="M26.4276 0.222351C26.4278 0.222351 26.4279 0.222351 26.4279 1.72235L26.4278 3.22235L26.2577 3.2226C26.1454 3.22285 25.9796 3.22334 25.7671 3.22434C25.342 3.22634 24.7297 3.23033 23.9827 3.23833C22.4881 3.25433 20.457 3.28632 18.3083 3.35021C16.1571 3.41417 13.9 3.50978 11.9496 3.65213C9.96575 3.79692 8.42402 3.98251 7.61619 4.19675C6.82291 4.42329 6.10285 4.85445 5.52822 5.44723C4.96196 6.03137 4.55661 6.75216 4.35138 7.53929C3.67085 11.3336 3.33803 15.1823 3.35706 19.0373L3.3571 19.0457L3.35705 19.0541C3.33273 22.9297 3.66406 26.7993 4.34684 30.6142C4.57337 31.3677 4.98489 32.0528 5.54421 32.6067C6.11893 33.1759 6.8303 33.5873 7.60977 33.8015C8.41583 34.0165 9.96048 34.2027 11.9496 34.3478C13.9 34.4902 16.1571 34.5858 18.3083 34.6498C20.457 34.7136 22.4881 34.7456 23.9827 34.7616C24.7297 34.7696 25.342 34.7736 25.7671 34.7756C25.9796 34.7766 26.1454 34.7771 26.2577 34.7774L26.4274 34.7776L26.4279 36.2776C26.4279 37.7776 26.4278 37.7776 26.4276 37.7776L26.2511 37.7774C26.1364 37.7771 25.9682 37.7766 25.753 37.7756C25.3227 37.7736 24.7043 37.7695 23.9506 37.7615C22.4436 37.7453 20.3926 37.7131 18.2191 37.6484C16.048 37.5839 13.7428 37.4867 11.7312 37.3399C9.76153 37.1961 7.94627 36.9971 6.83021 36.6985L6.82188 36.6962C5.54276 36.346 4.37563 35.6716 3.43322 34.7383C2.49082 33.805 1.80498 32.6444 1.44188 31.3686L1.42155 31.2972L1.40838 31.2241C0.683885 27.205 0.33195 23.1275 0.357059 19.0437C0.337557 14.9904 0.689466 10.9438 1.40837 6.95475L1.41726 6.90543L1.42942 6.8568C1.75878 5.5401 2.42958 4.33358 3.37417 3.35915C4.31878 2.38471 5.50373 1.67687 6.8094 1.30724L6.81979 1.3043L6.83021 1.3015C7.94627 1.00283 9.76153 0.803843 11.7312 0.660087C13.7428 0.513268 16.048 0.41609 18.2191 0.351534C20.3926 0.286907 22.4436 0.254633 23.9506 0.238502C24.7043 0.230433 25.3227 0.226396 25.753 0.224376C25.9682 0.223366 26.1364 0.222859 26.2511 0.222606L26.4276 0.222351ZM45.2397 33.8032C44.4319 34.0174 42.8901 34.203 40.9062 34.3478C38.9558 34.4902 36.6987 34.5858 34.5475 34.6498C32.3988 34.7136 30.3677 34.7456 28.8731 34.7616C28.1261 34.7696 27.5138 34.7736 27.0887 34.7756C26.8762 34.7766 26.7104 34.7771 26.5981 34.7774L26.4284 34.7776L26.4279 36.2776C26.4279 37.7776 26.4278 37.7776 26.4276 37.7776L26.6047 37.7774C26.7194 37.7771 26.8876 37.7766 27.1028 37.7756C27.5331 37.7736 28.1515 37.7695 28.9052 37.7615C30.4122 37.7453 32.4632 37.7131 34.6367 37.6484C36.8078 37.5839 39.113 37.4867 41.1246 37.3399C43.0943 37.1961 44.9095 36.9971 46.0256 36.6985L46.036 36.6957L46.0464 36.6927C47.3521 36.3231 48.537 35.6153 49.4816 34.6408C50.4262 33.6664 51.097 32.4599 51.4264 31.1432L51.4386 31.0945L51.4474 31.0452C52.1609 27.0859 52.5127 23.0699 52.4987 19.0468C52.5239 14.9626 52.172 10.8847 51.4474 6.86528L49.9712 7.13139L51.4264 6.7674C51.097 5.4507 50.4262 4.24418 49.4816 3.26974C48.537 2.2953 47.3521 1.58746 46.0464 1.21783L46.0203 1.21043L45.9939 1.20398C44.8897 0.934182 43.0853 0.752999 41.1152 0.62171C39.1062 0.487832 36.803 0.399167 34.6328 0.340248C32.4604 0.28127 30.4102 0.251814 28.9038 0.237091C28.1504 0.229727 27.5323 0.226042 27.1022 0.224198C26.8871 0.223276 26.719 0.222815 26.6045 0.222583L26.4276 0.222351C26.4278 0.222351 26.4279 0.222351 26.4279 1.72235L26.4278 3.22235L26.5984 3.22258C26.7108 3.2228 26.8767 3.22326 27.0893 3.22417C27.5147 3.22599 28.1272 3.22964 28.8745 3.23695C30.3697 3.25156 32.4016 3.28078 34.5514 3.33914C36.7034 3.39757 38.9627 3.48492 40.9157 3.61507C42.8862 3.74638 44.4314 3.91499 45.2552 4.11182C46.0423 4.33954 46.7567 4.76893 47.3276 5.35783C47.8939 5.94198 48.2992 6.66278 48.5044 7.44993C49.1903 11.273 49.5231 15.1511 49.4988 19.0353L49.4987 19.0427L49.4987 19.0501C49.5125 22.8759 49.1797 26.6951 48.5044 30.4607C48.2992 31.2478 47.8938 31.9686 47.3276 32.5527C46.753 33.1455 46.0329 33.5766 45.2397 33.8032Z" fill="black"/>
<path fill-rule="evenodd" clip-rule="evenodd" d="M19.9019 9.15637L37.2786 19.0447L19.9019 28.9331V9.15637ZM22.9019 14.3153V23.7742L31.2129 19.0447L22.9019 14.3153Z" fill="black"/>
</svg>
